<?xml version="1.0" encoding="UTF-8" standalone="no"?><svg xmlns="http://www.w3.org/2000/svg" xmlns:xlink="http://www.w3.org/1999/xlink" contentStyleType="text/css" height="918px" preserveAspectRatio="none" style="width:1083px;height:918px;background:#FFFFFF;" version="1.1" viewBox="0 0 1083 918" width="1083px" zoomAndPan="magnify"><defs/><g><!--MD5=[e184d75afe2d486f8f22edf616f7787e]
cluster Snowtricks--><g id="cluster_Snowtricks"><path d="M8.5,6 L96.5,6 A3.75,3.75 0 0 1 99,8.5 L106,28.2969 L408.5,28.2969 A2.5,2.5 0 0 1 411,30.7969 L411,908.5 A2.5,2.5 0 0 1 408.5,911 L8.5,911 A2.5,2.5 0 0 1 6,908.5 L6,8.5 A2.5,2.5 0 0 1 8.5,6 " fill="none" style="stroke:#000000;stroke-width:1.5;"/><line style="stroke:#000000;stroke-width:1.5;" x1="6" x2="106" y1="28.2969" y2="28.2969"/><text fill="#000000" font-family="sans-serif" font-size="14" font-weight="bold" lengthAdjust="spacing" textLength="87" x="10" y="20.9951">Snowtricks</text></g><!--MD5=[26b0db600b23c66ac35c5808bd4bff00]
cluster Symfony--><g id="cluster_Symfony"><path d="M437.5,235.5 L507.5,235.5 A3.75,3.75 0 0 1 510,238 L517,257.7969 L1073.5,257.7969 A2.5,2.5 0 0 1 1076,260.2969 L1076,381 A2.5,2.5 0 0 1 1073.5,383.5 L437.5,383.5 A2.5,2.5 0 0 1 435,381 L435,238 A2.5,2.5 0 0 1 437.5,235.5 " fill="none" style="stroke:#000000;stroke-width:1.5;"/><line style="stroke:#000000;stroke-width:1.5;" x1="435" x2="517" y1="257.7969" y2="257.7969"/><text fill="#000000" font-family="sans-serif" font-size="14" font-weight="bold" lengthAdjust="spacing" textLength="69" x="439" y="250.4951">Symfony</text></g><!--MD5=[3fd616f346a44cd59a91eb10b19e157c]
class User--><g id="elem_User"><rect codeLine="3" fill="#F1F1F1" height="129.4844" id="User" rx="2.5" ry="2.5" style="stroke:#181818;stroke-width:0.5;" width="137" x="253.5" y="41"/><ellipse cx="301.75" cy="57" fill="#ADD1B2" rx="11" ry="11" style="stroke:#181818;stroke-width:1.0;"/><path d="M304.2188,62.875 Q303.6406,63.1875 303,63.3438 Q302.3594,63.5 301.6563,63.5 Q299.1563,63.5 297.8281,61.8281 Q296.5156,60.1563 296.5156,57 Q296.5156,53.8438 297.8281,52.1719 Q299.1563,50.5 301.6563,50.5 Q302.3594,50.5 303,50.6563 Q303.6563,50.8125 304.2188,51.125 L304.2188,53.9219 Q303.5938,53.3594 303,53.0938 Q302.4063,52.8125 301.7813,52.8125 Q300.4375,52.8125 299.75,53.875 Q299.0625,54.9375 299.0625,57 Q299.0625,59.0781 299.75,60.1406 Q300.4375,61.1875 301.7813,61.1875 Q302.4063,61.1875 303,60.9219 Q303.5938,60.6563 304.2188,60.0781 L304.2188,62.875 Z " fill="#000000"/><text fill="#000000" font-family="sans-serif" font-size="14" lengthAdjust="spacing" textLength="32" x="322.25" y="61.8467">User</text><line style="stroke:#181818;stroke-width:0.5;" x1="254.5" x2="389.5" y1="73" y2="73"/><rect fill="none" height="6" style="stroke:#C82930;stroke-width:1.0;" width="6" x="261.5" y="83.6484"/><text fill="#000000" font-family="sans-serif" font-size="14" lengthAdjust="spacing" textLength="35" x="273.5" y="89.9951">int id</text><rect fill="none" height="6" style="stroke:#C82930;stroke-width:1.0;" width="6" x="261.5" y="99.9453"/><text fill="#000000" font-family="sans-serif" font-size="14" lengthAdjust="spacing" textLength="84" x="273.5" y="106.292">string email</text><rect fill="none" height="6" style="stroke:#C82930;stroke-width:1.0;" width="6" x="261.5" y="116.2422"/><text fill="#000000" font-family="sans-serif" font-size="14" lengthAdjust="spacing" textLength="111" x="273.5" y="122.5889">string password</text><rect fill="none" height="6" style="stroke:#C82930;stroke-width:1.0;" width="6" x="261.5" y="132.5391"/><text fill="#000000" font-family="sans-serif" font-size="14" lengthAdjust="spacing" textLength="85" x="273.5" y="138.8857">string name</text><rect fill="none" height="6" style="stroke:#C82930;stroke-width:1.0;" width="6" x="261.5" y="148.8359"/><text fill="#000000" font-family="sans-serif" font-size="14" lengthAdjust="spacing" textLength="97" x="273.5" y="155.1826">?string avatar</text><line style="stroke:#181818;stroke-width:0.5;" x1="254.5" x2="389.5" y1="162.4844" y2="162.4844"/></g><!--MD5=[4062345740d45e3dc5a7b6bc749ee30d]
class Trick--><g id="elem_Trick"><rect codeLine="11" fill="#F1F1F1" height="178.375" id="Trick" rx="2.5" ry="2.5" style="stroke:#181818;stroke-width:0.5;" width="238" x="37" y="230"/><ellipse cx="134.25" cy="246" fill="#ADD1B2" rx="11" ry="11" style="stroke:#181818;stroke-width:1.0;"/><path d="M136.7188,251.875 Q136.1406,252.1875 135.5,252.3438 Q134.8594,252.5 134.1563,252.5 Q131.6563,252.5 130.3281,250.8281 Q129.0156,249.1563 129.0156,246 Q129.0156,242.8438 130.3281,241.1719 Q131.6563,239.5 134.1563,239.5 Q134.8594,239.5 135.5,239.6563 Q136.1563,239.8125 136.7188,240.125 L136.7188,242.9219 Q136.0938,242.3594 135.5,242.0938 Q134.9063,241.8125 134.2813,241.8125 Q132.9375,241.8125 132.25,242.875 Q131.5625,243.9375 131.5625,246 Q131.5625,248.0781 132.25,249.1406 Q132.9375,250.1875 134.2813,250.1875 Q134.9063,250.1875 135.5,249.9219 Q136.0938,249.6563 136.7188,249.0781 L136.7188,251.875 Z " fill="#000000"/><text fill="#000000" font-family="sans-serif" font-size="14" lengthAdjust="spacing" textLength="35" x="154.75" y="250.8467">Trick</text><line style="stroke:#181818;stroke-width:0.5;" x1="38" x2="274" y1="262" y2="262"/><rect fill="none" height="6" style="stroke:#C82930;stroke-width:1.0;" width="6" x="45" y="272.6484"/><text fill="#000000" font-family="sans-serif" font-size="14" lengthAdjust="spacing" textLength="35" x="57" y="278.9951">int id</text><rect fill="none" height="6" style="stroke:#C82930;stroke-width:1.0;" width="6" x="45" y="288.9453"/><text fill="#000000" font-family="sans-serif" font-size="14" lengthAdjust="spacing" textLength="85" x="57" y="295.292">string name</text><rect fill="none" height="6" style="stroke:#C82930;stroke-width:1.0;" width="6" x="45" y="305.2422"/><text fill="#000000" font-family="sans-serif" font-size="14" lengthAdjust="spacing" textLength="123" x="57" y="311.5889">string description</text><rect fill="none" height="6" style="stroke:#C82930;stroke-width:1.0;" width="6" x="45" y="321.5391"/><text fill="#000000" font-family="sans-serif" font-size="14" lengthAdjust="spacing" textLength="73" x="57" y="327.8857">string slug</text><rect fill="none" height="6" style="stroke:#C82930;stroke-width:1.0;" width="6" x="45" y="337.8359"/><text fill="#000000" font-family="sans-serif" font-size="14" lengthAdjust="spacing" textLength="208" x="57" y="344.1826">DateTimeInterface createdAt</text><rect fill="none" height="6" style="stroke:#C82930;stroke-width:1.0;" width="6" x="45" y="354.1328"/><text fill="#000000" font-family="sans-serif" font-size="14" lengthAdjust="spacing" textLength="212" x="57" y="360.4795">DateTimeInterface updatedAt</text><rect fill="none" height="6" style="stroke:#C82930;stroke-width:1.0;" width="6" x="45" y="370.4297"/><text fill="#000000" font-family="sans-serif" font-size="14" lengthAdjust="spacing" textLength="67" x="57" y="376.7764">User user</text><rect fill="none" height="6" style="stroke:#C82930;stroke-width:1.0;" width="6" x="45" y="386.7266"/><text fill="#000000" font-family="sans-serif" font-size="14" lengthAdjust="spacing" textLength="87" x="57" y="393.0732">Media cover</text><line style="stroke:#181818;stroke-width:0.5;" x1="38" x2="274" y1="400.375" y2="400.375"/></g><!--MD5=[042fa140da40c49659127f611bcff931]
class Comment--><g id="elem_Comment"><rect codeLine="24" fill="#F1F1F1" height="129.4844" id="Comment" rx="2.5" ry="2.5" style="stroke:#181818;stroke-width:0.5;" width="234" x="161" y="468"/><ellipse cx="238.75" cy="484" fill="#ADD1B2" rx="11" ry="11" style="stroke:#181818;stroke-width:1.0;"/><path d="M241.2188,489.875 Q240.6406,490.1875 240,490.3438 Q239.3594,490.5 238.6563,490.5 Q236.1563,490.5 234.8281,488.8281 Q233.5156,487.1563 233.5156,484 Q233.5156,480.8438 234.8281,479.1719 Q236.1563,477.5 238.6563,477.5 Q239.3594,477.5 240,477.6563 Q240.6563,477.8125 241.2188,478.125 L241.2188,480.9219 Q240.5938,480.3594 240,480.0938 Q239.4063,479.8125 238.7813,479.8125 Q237.4375,479.8125 236.75,480.875 Q236.0625,481.9375 236.0625,484 Q236.0625,486.0781 236.75,487.1406 Q237.4375,488.1875 238.7813,488.1875 Q239.4063,488.1875 240,487.9219 Q240.5938,487.6563 241.2188,487.0781 L241.2188,489.875 Z " fill="#000000"/><text fill="#000000" font-family="sans-serif" font-size="14" lengthAdjust="spacing" textLength="70" x="259.25" y="488.8467">Comment</text><line style="stroke:#181818;stroke-width:0.5;" x1="162" x2="394" y1="500" y2="500"/><rect fill="none" height="6" style="stroke:#C82930;stroke-width:1.0;" width="6" x="169" y="510.6484"/><text fill="#000000" font-family="sans-serif" font-size="14" lengthAdjust="spacing" textLength="35" x="181" y="516.9951">int id</text><rect fill="none" height="6" style="stroke:#C82930;stroke-width:1.0;" width="6" x="169" y="526.9453"/><text fill="#000000" font-family="sans-serif" font-size="14" lengthAdjust="spacing" textLength="98" x="181" y="533.292">string content</text><rect fill="none" height="6" style="stroke:#C82930;stroke-width:1.0;" width="6" x="169" y="543.2422"/><text fill="#000000" font-family="sans-serif" font-size="14" lengthAdjust="spacing" textLength="208" x="181" y="549.5889">DateTimeInterface createdAt</text><rect fill="none" height="6" style="stroke:#C82930;stroke-width:1.0;" width="6" x="169" y="559.5391"/><text fill="#000000" font-family="sans-serif" font-size="14" lengthAdjust="spacing" textLength="67" x="181" y="565.8857">User user</text><rect fill="none" height="6" style="stroke:#C82930;stroke-width:1.0;" width="6" x="169" y="575.8359"/><text fill="#000000" font-family="sans-serif" font-size="14" lengthAdjust="spacing" textLength="70" x="181" y="582.1826">Trick trick</text><line style="stroke:#181818;stroke-width:0.5;" x1="162" x2="394" y1="589.4844" y2="589.4844"/></g><!--MD5=[9d93cc8568a88ed605ddd50c0dd874e2]
class Media--><g id="elem_Media"><rect codeLine="35" fill="#F1F1F1" height="80.5938" id="Media" rx="2.5" ry="2.5" style="stroke:#181818;stroke-width:0.5;" width="103" x="22.5" y="492"/><ellipse cx="50.1" cy="508" fill="#A9DCDF" rx="11" ry="11" style="stroke:#181818;stroke-width:1.0;"/><path d="M50.2094,503.2969 L49.0531,508.625 L51.3813,508.625 L50.2094,503.2969 Z M48.725,500.75 L51.7094,500.75 L55.0688,513.75 L52.6156,513.75 L51.85,510.75 L48.5688,510.75 L47.8188,513.75 L45.3813,513.75 L48.725,500.75 Z " fill="#000000"/><text fill="#000000" font-family="sans-serif" font-size="14" font-style="italic" lengthAdjust="spacing" textLength="43" x="66.9" y="512.8467">Media</text><line style="stroke:#181818;stroke-width:0.5;" x1="23.5" x2="124.5" y1="524" y2="524"/><rect fill="none" height="6" style="stroke:#C82930;stroke-width:1.0;" width="6" x="30.5" y="534.6484"/><text fill="#000000" font-family="sans-serif" font-size="14" lengthAdjust="spacing" textLength="35" x="42.5" y="540.9951">int id</text><rect fill="none" height="6" style="stroke:#C82930;stroke-width:1.0;" width="6" x="30.5" y="550.9453"/><text fill="#000000" font-family="sans-serif" font-size="14" lengthAdjust="spacing" textLength="77" x="42.5" y="557.292">?Trick trick</text><line style="stroke:#181818;stroke-width:0.5;" x1="23.5" x2="124.5" y1="564.5938" y2="564.5938"/></g><!--MD5=[964f074a2dd77d134c21b891bb53e381]
class Image--><g id="elem_Image"><rect codeLine="40" fill="#F1F1F1" height="80.5938" id="Image" rx="2.5" ry="2.5" style="stroke:#181818;stroke-width:0.5;" width="102" x="22" y="657"/><ellipse cx="48.25" cy="673" fill="#ADD1B2" rx="11" ry="11" style="stroke:#181818;stroke-width:1.0;"/><path d="M50.7188,678.875 Q50.1406,679.1875 49.5,679.3438 Q48.8594,679.5 48.1563,679.5 Q45.6563,679.5 44.3281,677.8281 Q43.0156,676.1563 43.0156,673 Q43.0156,669.8438 44.3281,668.1719 Q45.6563,666.5 48.1563,666.5 Q48.8594,666.5 49.5,666.6563 Q50.1563,666.8125 50.7188,667.125 L50.7188,669.9219 Q50.0938,669.3594 49.5,669.0938 Q48.9063,668.8125 48.2813,668.8125 Q46.9375,668.8125 46.25,669.875 Q45.5625,670.9375 45.5625,673 Q45.5625,675.0781 46.25,676.1406 Q46.9375,677.1875 48.2813,677.1875 Q48.9063,677.1875 49.5,676.9219 Q50.0938,676.6563 50.7188,676.0781 L50.7188,678.875 Z " fill="#000000"/><text fill="#000000" font-family="sans-serif" font-size="14" lengthAdjust="spacing" textLength="45" x="64.75" y="677.8467">Image</text><line style="stroke:#181818;stroke-width:0.5;" x1="23" x2="123" y1="689" y2="689"/><rect fill="none" height="6" style="stroke:#C82930;stroke-width:1.0;" width="6" x="30" y="699.6484"/><text fill="#000000" font-family="sans-serif" font-size="14" lengthAdjust="spacing" textLength="76" x="42" y="705.9951">string path</text><rect fill="none" height="6" style="stroke:#C82930;stroke-width:1.0;" width="6" x="30" y="715.9453"/><text fill="#000000" font-family="sans-serif" font-size="14" lengthAdjust="spacing" textLength="62" x="42" y="722.292">string alt</text><line style="stroke:#181818;stroke-width:0.5;" x1="23" x2="123" y1="729.5938" y2="729.5938"/></g><!--MD5=[166247bf81aba95c770c3b8fd8e3cb19]
class Video--><g id="elem_Video"><rect codeLine="45" fill="#F1F1F1" height="80.5938" id="Video" rx="2.5" ry="2.5" style="stroke:#181818;stroke-width:0.5;" width="190" x="159" y="657"/><ellipse cx="229.25" cy="673" fill="#ADD1B2" rx="11" ry="11" style="stroke:#181818;stroke-width:1.0;"/><path d="M231.7188,678.875 Q231.1406,679.1875 230.5,679.3438 Q229.8594,679.5 229.1563,679.5 Q226.6563,679.5 225.3281,677.8281 Q224.0156,676.1563 224.0156,673 Q224.0156,669.8438 225.3281,668.1719 Q226.6563,666.5 229.1563,666.5 Q229.8594,666.5 230.5,666.6563 Q231.1563,666.8125 231.7188,667.125 L231.7188,669.9219 Q231.0938,669.3594 230.5,669.0938 Q229.9063,668.8125 229.2813,668.8125 Q227.9375,668.8125 227.25,669.875 Q226.5625,670.9375 226.5625,673 Q226.5625,675.0781 227.25,676.1406 Q227.9375,677.1875 229.2813,677.1875 Q229.9063,677.1875 230.5,676.9219 Q231.0938,676.6563 231.7188,676.0781 L231.7188,678.875 Z " fill="#000000"/><text fill="#000000" font-family="sans-serif" font-size="14" lengthAdjust="spacing" textLength="41" x="249.75" y="677.8467">Video</text><line style="stroke:#181818;stroke-width:0.5;" x1="160" x2="348" y1="689" y2="689"/><rect fill="none" height="6" style="stroke:#C82930;stroke-width:1.0;" width="6" x="167" y="699.6484"/><text fill="#000000" font-family="sans-serif" font-size="14" lengthAdjust="spacing" textLength="63" x="179" y="705.9951">string url</text><rect fill="none" height="6" style="stroke:#C82930;stroke-width:1.0;" width="6" x="167" y="715.9453"/><text fill="#000000" font-family="sans-serif" font-size="14" lengthAdjust="spacing" textLength="164" x="179" y="722.292">VideoProvider provider</text><line style="stroke:#181818;stroke-width:0.5;" x1="160" x2="348" y1="729.5938" y2="729.5938"/></g><!--MD5=[9fbee1e3a8fbe62298f9272a83d4ceb1]
class VideoProvider--><g id="elem_VideoProvider"><rect codeLine="50" fill="#F1F1F1" height="96.8906" id="VideoProvider" rx="2.5" ry="2.5" style="stroke:#181818;stroke-width:0.5;" width="132" x="188" y="798"/><ellipse cx="203" cy="814" fill="#EB937F" rx="11" ry="11" style="stroke:#181818;stroke-width:1.0;"/><path d="M207.1094,820.5 L199.3906,820.5 L199.3906,807.5 L207.1094,807.5 L207.1094,809.7813 L201.8438,809.7813 L201.8438,812.5 L206.6094,812.5 L206.6094,814.7813 L201.8438,814.7813 L201.8438,818.2344 L207.1094,818.2344 L207.1094,820.5 Z " fill="#000000"/><text fill="#000000" font-family="sans-serif" font-size="14" lengthAdjust="spacing" textLength="100" x="217" y="818.8467">VideoProvider</text><line style="stroke:#181818;stroke-width:0.5;" x1="189" x2="319" y1="830" y2="830"/><text fill="#000000" font-family="sans-serif" font-size="14" lengthAdjust="spacing" textLength="59" x="194" y="846.9951">Youtube</text><text fill="#000000" font-family="sans-serif" font-size="14" lengthAdjust="spacing" textLength="84" x="194" y="863.292">DailyMotion</text><text fill="#000000" font-family="sans-serif" font-size="14" lengthAdjust="spacing" textLength="46" x="194" y="879.5889">Vimeo</text><line style="stroke:#181818;stroke-width:0.5;" x1="189" x2="319" y1="886.8906" y2="886.8906"/></g><!--MD5=[a7661dae5b0d701614a666888c8235ba]
class UserInterface--><g id="elem_UserInterface"><rect codeLine="62" fill="#F1F1F1" height="96.8906" id="UserInterface" rx="2.5" ry="2.5" style="stroke:#181818;stroke-width:0.5;" width="280" x="780" y="270.5"/><ellipse cx="867.75" cy="286.5" fill="#B4A7E5" rx="11" ry="11" style="stroke:#181818;stroke-width:1.0;"/><path d="M864.1719,282.2813 L864.1719,280 L871.5625,280 L871.5625,282.2813 L869.0938,282.2813 L869.0938,290.7344 L871.5625,290.7344 L871.5625,293 L864.1719,293 L864.1719,290.7344 L866.6406,290.7344 L866.6406,282.2813 L864.1719,282.2813 Z " fill="#000000"/><text fill="#000000" font-family="sans-serif" font-size="14" font-style="italic" lengthAdjust="spacing" textLength="96" x="888.25" y="291.3467">UserInterface</text><line style="stroke:#181818;stroke-width:0.5;" x1="781" x2="1059" y1="302.5" y2="302.5"/><line style="stroke:#181818;stroke-width:0.5;" x1="781" x2="1059" y1="310.5" y2="310.5"/><ellipse cx="791" cy="324.1484" fill="#84BE84" rx="3" ry="3" style="stroke:#038048;stroke-width:1.0;"/><text fill="#000000" font-family="sans-serif" font-size="14" lengthAdjust="spacing" textLength="254" x="800" y="327.4951">array&lt;array-key, string&gt; getRoles()</text><ellipse cx="791" cy="340.4453" fill="#84BE84" rx="3" ry="3" style="stroke:#038048;stroke-width:1.0;"/><text fill="#000000" font-family="sans-serif" font-size="14" lengthAdjust="spacing" textLength="165" x="800" y="343.792">void eraseCredentials()</text><ellipse cx="791" cy="356.7422" fill="#84BE84" rx="3" ry="3" style="stroke:#038048;stroke-width:1.0;"/><text fill="#000000" font-family="sans-serif" font-size="14" lengthAdjust="spacing" textLength="173" x="800" y="360.0889">string getUserIdentifier()</text></g><!--MD5=[3e5e288e94eb368478771d5941c0091b]
class PasswordAuthenticatedUserInterface--><g id="elem_PasswordAuthenticatedUserInterface"><rect codeLine="68" fill="#F1F1F1" height="64.2969" id="PasswordAuthenticatedUserInterface" rx="2.5" ry="2.5" style="stroke:#181818;stroke-width:0.5;" width="294" x="451" y="287"/><ellipse cx="466" cy="303" fill="#B4A7E5" rx="11" ry="11" style="stroke:#181818;stroke-width:1.0;"/><path d="M462.4219,298.7813 L462.4219,296.5 L469.8125,296.5 L469.8125,298.7813 L467.3438,298.7813 L467.3438,307.2344 L469.8125,307.2344 L469.8125,309.5 L462.4219,309.5 L462.4219,307.2344 L464.8906,307.2344 L464.8906,298.7813 L462.4219,298.7813 Z " fill="#000000"/><text fill="#000000" font-family="sans-serif" font-size="14" font-style="italic" lengthAdjust="spacing" textLength="262" x="480" y="307.8467">PasswordAuthenticatedUserInterface</text><line style="stroke:#181818;stroke-width:0.5;" x1="452" x2="744" y1="319" y2="319"/><line style="stroke:#181818;stroke-width:0.5;" x1="452" x2="744" y1="327" y2="327"/><ellipse cx="462" cy="340.6484" fill="#84BE84" rx="3" ry="3" style="stroke:#038048;stroke-width:1.0;"/><text fill="#000000" font-family="sans-serif" font-size="14" lengthAdjust="spacing" textLength="150" x="471" y="343.9951">?string getPassword()</text></g><!--MD5=[3c0b2a8407d536453e9be14453a8b931]
link User to Trick--><g id="link_User_Trick"><path codeLine="22" d="M271.97,170.24 C257.27,188.97 240.92,209.81 225.24,229.78 " fill="none" id="User-Trick" style="stroke:#181818;stroke-width:1.0;"/><text fill="#000000" font-family="sans-serif" font-size="13" lengthAdjust="spacing" textLength="8" x="257.7228" y="190.6393">1</text><text fill="#000000" font-family="sans-serif" font-size="13" lengthAdjust="spacing" textLength="23" x="207.0216" y="218.8272">0..*</text></g><!--MD5=[2dd21c5e4d24a00e804d12dd0c7b0d9f]
link User to Comment--><g id="link_User_Comment"><path codeLine="32" d="M316.35,170.07 C310.81,231.12 301.93,325.93 293,408 C290.89,427.43 288.39,448.56 286.05,467.75 " fill="none" id="User-Comment" style="stroke:#181818;stroke-width:1.0;"/><text fill="#000000" font-family="sans-serif" font-size="13" lengthAdjust="spacing" textLength="8" x="307.2342" y="190.4497">1</text><text fill="#000000" font-family="sans-serif" font-size="13" lengthAdjust="spacing" textLength="23" x="262.6727" y="456.8953">0..*</text></g><!--MD5=[f16608e8a5bf895529a6b5c6f5109a91]
link Trick to Comment--><g id="link_Trick_Comment"><path codeLine="33" d="M206.86,408.16 C218.43,428.23 230.5,449.16 241.35,467.96 " fill="none" id="Trick-Comment" style="stroke:#181818;stroke-width:1.0;"/><text fill="#000000" font-family="sans-serif" font-size="13" lengthAdjust="spacing" textLength="8" x="202.887" y="428.5232">1</text><text fill="#000000" font-family="sans-serif" font-size="13" lengthAdjust="spacing" textLength="23" x="213.0836" y="457.1283">0..*</text></g><!--MD5=[f9ac3c072bc26e224af9a98adf480645]
reverse link Media to Image--><g id="link_Media_Image"><path d="M73.63,593.54 C73.5,614.62 73.36,637.76 73.24,656.76 " fill="none" id="Media-backto-Image" style="stroke:#181818;stroke-width:1.0;"/><polygon fill="none" points="66.63,593.33,73.76,573.37,80.63,593.42,66.63,593.33" style="stroke:#181818;stroke-width:1.0;"/></g><!--MD5=[46facb2c12fed10827aedf45a070bcb0]
reverse link Media to Video--><g id="link_Media_Video"><path d="M132.58,586.65 C136.44,590.15 140.28,593.63 144,597 C165.76,616.71 189.95,638.59 210.09,656.81 " fill="none" id="Media-backto-Video" style="stroke:#181818;stroke-width:1.0;"/><polygon fill="none" points="127.79,591.76,117.68,573.14,137.2,581.39,127.79,591.76" style="stroke:#181818;stroke-width:1.0;"/></g><!--MD5=[65bc919ff287a66542605f23a8caa090]
link Trick to Media--><g id="link_Trick_Media"><path codeLine="56" d="M109.23,408.16 C97.4,437.29 86.2,468.26 79.16,491.87 " fill="none" id="Trick-Media" style="stroke:#181818;stroke-width:1.0;"/><text fill="#000000" font-family="sans-serif" font-size="13" lengthAdjust="spacing" textLength="8" x="96.867" y="428.5232">1</text><text fill="#000000" font-family="sans-serif" font-size="13" lengthAdjust="spacing" textLength="23" x="55.1099" y="481.01">0..*</text></g><!--MD5=[65bc919ff287a66542605f23a8caa090]
link Trick to Media--><g id="link_Trick_Media"><path codeLine="57" d="M135.15,408.16 C124.42,437.29 111.57,468.26 100.17,491.87 " fill="none" id="Trick-Media-1" style="stroke:#181818;stroke-width:1.0;"/><text fill="#000000" font-family="sans-serif" font-size="13" lengthAdjust="spacing" textLength="8" x="125.0145" y="428.5232">1</text><text fill="#000000" font-family="sans-serif" font-size="13" lengthAdjust="spacing" textLength="24" x="106.4919" y="481.01">0..1</text></g><!--MD5=[48013f3149bc41b9169d26ea084c97b8]
link Video to VideoProvider--><g id="link_Video_VideoProvider"><path codeLine="58" d="M254,738.28 C254,756.65 254,778.6 254,797.84 " fill="none" id="Video-VideoProvider" style="stroke:#181818;stroke-width:1.0;"/></g><!--MD5=[2b1021e991bdb1a0a284433438cee317]
link User to UserInterface--><g id="link_User_UserInterface"><path codeLine="74" d="M390.66,119.65 C478.96,137.84 636.06,174.53 763,227.5 C785.12,236.73 807.97,248.48 829.17,260.43 " fill="none" id="User-to-UserInterface" style="stroke:#181818;stroke-width:1.0;"/><polygon fill="none" points="832.72,254.4,846.53,270.47,825.71,266.52,832.72,254.4" style="stroke:#181818;stroke-width:1.0;"/></g><!--MD5=[c0bc830aeb216dd539b16b5f6010f448]
link User to PasswordAuthenticatedUserInterface--><g id="link_User_PasswordAuthenticatedUserInterface"><path codeLine="75" d="M390.58,159.05 C436.91,194.56 497.36,240.88 541.03,274.35 " fill="none" id="User-to-PasswordAuthenticatedUserInterface" style="stroke:#181818;stroke-width:1.0;"/><polygon fill="none" points="545.56,269,557.18,286.72,537.05,280.11,545.56,269" style="stroke:#181818;stroke-width:1.0;"/></g><!--MD5=[d9ab3ac0dccdd2e33f18cd09c8eb1e5c]
@startuml

package "Snowtricks" {
    class User {
        - int id
        - string email
        - string password
        - string name
        - ?string avatar
    }

    class Trick {
        - int id
        - string name
        - string description
        - string slug
        - DateTimeInterface createdAt
        - DateTimeInterface updatedAt
        - User user
        - Media cover
    }

    User "1" - - "0..*" Trick

    class Comment {
        - int id
        - string content
        - DateTimeInterface createdAt
        - User user
        - Trick trick
    }

    User "1" - - "0..*" Comment
    Trick "1" - - "0..*" Comment

    abstract class Media {
        - int id
        - ?Trick trick
    }

    class Image extends Media {
        - string path
        - string alt
    }

    class Video extends Media {
        - string url
        - VideoProvider provider
    }

    enum VideoProvider {
        Youtube
        DailyMotion
        Vimeo
    }

    Trick "1" - - "0..*" Media
    Trick "1" - - "0..1" Media
    Video - - VideoProvider
}

package "Symfony" {
    interface UserInterface {
        + array<array-key, string> getRoles()
        + void eraseCredentials()
        + string getUserIdentifier()
    }

    interface PasswordAuthenticatedUserInterface {
        + ?string getPassword()
    }
}


User - -|> UserInterface
User - -|> PasswordAuthenticatedUserInterface

@enduml

PlantUML version 1.2022.7(Mon Aug 22 19:01:30 CEST 2022)
(GPL source distribution)
Java Runtime: OpenJDK Runtime Environment
JVM: OpenJDK 64-Bit Server VM
Default Encoding: UTF-8
Language: fr
Country: FR
--></g></svg>