<?xml version="1.0" encoding="UTF-8" standalone="no"?><svg xmlns="http://www.w3.org/2000/svg" xmlns:xlink="http://www.w3.org/1999/xlink" contentStyleType="text/css" height="918px" preserveAspectRatio="none" style="width:1120px;height:918px;background:#FFFFFF;" version="1.1" viewBox="0 0 1120 918" width="1120px" zoomAndPan="magnify"><defs/><g><!--MD5=[e184d75afe2d486f8f22edf616f7787e]
cluster Snowtricks--><g id="cluster_Snowtricks"><path d="M8.5,6 L96.5,6 A3.75,3.75 0 0 1 99,8.5 L106,28.2969 L445.5,28.2969 A2.5,2.5 0 0 1 448,30.7969 L448,908.5 A2.5,2.5 0 0 1 445.5,911 L8.5,911 A2.5,2.5 0 0 1 6,908.5 L6,8.5 A2.5,2.5 0 0 1 8.5,6 " fill="none" style="stroke:#000000;stroke-width:1.5;"/><line style="stroke:#000000;stroke-width:1.5;" x1="6" x2="106" y1="28.2969" y2="28.2969"/><text fill="#000000" font-family="sans-serif" font-size="14" font-weight="bold" lengthAdjust="spacing" textLength="87" x="10" y="20.9951">Snowtricks</text></g><!--MD5=[26b0db600b23c66ac35c5808bd4bff00]
cluster Symfony--><g id="cluster_Symfony"><path d="M474.5,235.5 L544.5,235.5 A3.75,3.75 0 0 1 547,238 L554,257.7969 L1110.5,257.7969 A2.5,2.5 0 0 1 1113,260.2969 L1113,381 A2.5,2.5 0 0 1 1110.5,383.5 L474.5,383.5 A2.5,2.5 0 0 1 472,381 L472,238 A2.5,2.5 0 0 1 474.5,235.5 " fill="none" style="stroke:#000000;stroke-width:1.5;"/><line style="stroke:#000000;stroke-width:1.5;" x1="472" x2="554" y1="257.7969" y2="257.7969"/><text fill="#000000" font-family="sans-serif" font-size="14" font-weight="bold" lengthAdjust="spacing" textLength="69" x="476" y="250.4951">Symfony</text></g><!--MD5=[3fd616f346a44cd59a91eb10b19e157c]
class User--><g id="elem_User"><rect codeLine="3" fill="#F1F1F1" height="129.4844" id="User" rx="2.5" ry="2.5" style="stroke:#181818;stroke-width:0.5;" width="137" x="283.5" y="41"/><ellipse cx="331.75" cy="57" fill="#ADD1B2" rx="11" ry="11" style="stroke:#181818;stroke-width:1.0;"/><path d="M334.2188,62.875 Q333.6406,63.1875 333,63.3438 Q332.3594,63.5 331.6563,63.5 Q329.1563,63.5 327.8281,61.8281 Q326.5156,60.1563 326.5156,57 Q326.5156,53.8438 327.8281,52.1719 Q329.1563,50.5 331.6563,50.5 Q332.3594,50.5 333,50.6563 Q333.6563,50.8125 334.2188,51.125 L334.2188,53.9219 Q333.5938,53.3594 333,53.0938 Q332.4063,52.8125 331.7813,52.8125 Q330.4375,52.8125 329.75,53.875 Q329.0625,54.9375 329.0625,57 Q329.0625,59.0781 329.75,60.1406 Q330.4375,61.1875 331.7813,61.1875 Q332.4063,61.1875 333,60.9219 Q333.5938,60.6563 334.2188,60.0781 L334.2188,62.875 Z " fill="#000000"/><text fill="#000000" font-family="sans-serif" font-size="14" lengthAdjust="spacing" textLength="32" x="352.25" y="61.8467">User</text><line style="stroke:#181818;stroke-width:0.5;" x1="284.5" x2="419.5" y1="73" y2="73"/><rect fill="none" height="6" style="stroke:#C82930;stroke-width:1.0;" width="6" x="291.5" y="83.6484"/><text fill="#000000" font-family="sans-serif" font-size="14" lengthAdjust="spacing" textLength="35" x="303.5" y="89.9951">int id</text><rect fill="none" height="6" style="stroke:#C82930;stroke-width:1.0;" width="6" x="291.5" y="99.9453"/><text fill="#000000" font-family="sans-serif" font-size="14" lengthAdjust="spacing" textLength="84" x="303.5" y="106.292">string email</text><rect fill="none" height="6" style="stroke:#C82930;stroke-width:1.0;" width="6" x="291.5" y="116.2422"/><text fill="#000000" font-family="sans-serif" font-size="14" lengthAdjust="spacing" textLength="111" x="303.5" y="122.5889">string password</text><rect fill="none" height="6" style="stroke:#C82930;stroke-width:1.0;" width="6" x="291.5" y="132.5391"/><text fill="#000000" font-family="sans-serif" font-size="14" lengthAdjust="spacing" textLength="85" x="303.5" y="138.8857">string name</text><rect fill="none" height="6" style="stroke:#C82930;stroke-width:1.0;" width="6" x="291.5" y="148.8359"/><text fill="#000000" font-family="sans-serif" font-size="14" lengthAdjust="spacing" textLength="97" x="303.5" y="155.1826">?string avatar</text><line style="stroke:#181818;stroke-width:0.5;" x1="284.5" x2="419.5" y1="162.4844" y2="162.4844"/></g><!--MD5=[4062345740d45e3dc5a7b6bc749ee30d]
class Trick--><g id="elem_Trick"><rect codeLine="11" fill="#F1F1F1" height="178.375" id="Trick" rx="2.5" ry="2.5" style="stroke:#181818;stroke-width:0.5;" width="238" x="53" y="230"/><ellipse cx="150.25" cy="246" fill="#ADD1B2" rx="11" ry="11" style="stroke:#181818;stroke-width:1.0;"/><path d="M152.7188,251.875 Q152.1406,252.1875 151.5,252.3438 Q150.8594,252.5 150.1563,252.5 Q147.6563,252.5 146.3281,250.8281 Q145.0156,249.1563 145.0156,246 Q145.0156,242.8438 146.3281,241.1719 Q147.6563,239.5 150.1563,239.5 Q150.8594,239.5 151.5,239.6563 Q152.1563,239.8125 152.7188,240.125 L152.7188,242.9219 Q152.0938,242.3594 151.5,242.0938 Q150.9063,241.8125 150.2813,241.8125 Q148.9375,241.8125 148.25,242.875 Q147.5625,243.9375 147.5625,246 Q147.5625,248.0781 148.25,249.1406 Q148.9375,250.1875 150.2813,250.1875 Q150.9063,250.1875 151.5,249.9219 Q152.0938,249.6563 152.7188,249.0781 L152.7188,251.875 Z " fill="#000000"/><text fill="#000000" font-family="sans-serif" font-size="14" lengthAdjust="spacing" textLength="35" x="170.75" y="250.8467">Trick</text><line style="stroke:#181818;stroke-width:0.5;" x1="54" x2="290" y1="262" y2="262"/><rect fill="none" height="6" style="stroke:#C82930;stroke-width:1.0;" width="6" x="61" y="272.6484"/><text fill="#000000" font-family="sans-serif" font-size="14" lengthAdjust="spacing" textLength="35" x="73" y="278.9951">int id</text><rect fill="none" height="6" style="stroke:#C82930;stroke-width:1.0;" width="6" x="61" y="288.9453"/><text fill="#000000" font-family="sans-serif" font-size="14" lengthAdjust="spacing" textLength="85" x="73" y="295.292">string name</text><rect fill="none" height="6" style="stroke:#C82930;stroke-width:1.0;" width="6" x="61" y="305.2422"/><text fill="#000000" font-family="sans-serif" font-size="14" lengthAdjust="spacing" textLength="123" x="73" y="311.5889">string description</text><rect fill="none" height="6" style="stroke:#C82930;stroke-width:1.0;" width="6" x="61" y="321.5391"/><text fill="#000000" font-family="sans-serif" font-size="14" lengthAdjust="spacing" textLength="73" x="73" y="327.8857">string slug</text><rect fill="none" height="6" style="stroke:#C82930;stroke-width:1.0;" width="6" x="61" y="337.8359"/><text fill="#000000" font-family="sans-serif" font-size="14" lengthAdjust="spacing" textLength="208" x="73" y="344.1826">DateTimeInterface createdAt</text><rect fill="none" height="6" style="stroke:#C82930;stroke-width:1.0;" width="6" x="61" y="354.1328"/><text fill="#000000" font-family="sans-serif" font-size="14" lengthAdjust="spacing" textLength="212" x="73" y="360.4795">DateTimeInterface updatedAt</text><rect fill="none" height="6" style="stroke:#C82930;stroke-width:1.0;" width="6" x="61" y="370.4297"/><text fill="#000000" font-family="sans-serif" font-size="14" lengthAdjust="spacing" textLength="67" x="73" y="376.7764">User user</text><rect fill="none" height="6" style="stroke:#C82930;stroke-width:1.0;" width="6" x="61" y="386.7266"/><text fill="#000000" font-family="sans-serif" font-size="14" lengthAdjust="spacing" textLength="89" x="73" y="393.0732">Image cover</text><line style="stroke:#181818;stroke-width:0.5;" x1="54" x2="290" y1="400.375" y2="400.375"/></g><!--MD5=[a96594a83e2ecdc78cbf17c2ddf01934]
class Category--><g id="elem_Category"><rect codeLine="24" fill="#F1F1F1" height="80.5938" id="Category" rx="2.5" ry="2.5" style="stroke:#181818;stroke-width:0.5;" width="111" x="116.5" y="65"/><ellipse cx="137.8" cy="81" fill="#ADD1B2" rx="11" ry="11" style="stroke:#181818;stroke-width:1.0;"/><path d="M140.2688,86.875 Q139.6906,87.1875 139.05,87.3438 Q138.4094,87.5 137.7063,87.5 Q135.2063,87.5 133.8781,85.8281 Q132.5656,84.1563 132.5656,81 Q132.5656,77.8438 133.8781,76.1719 Q135.2063,74.5 137.7063,74.5 Q138.4094,74.5 139.05,74.6563 Q139.7063,74.8125 140.2688,75.125 L140.2688,77.9219 Q139.6438,77.3594 139.05,77.0938 Q138.4563,76.8125 137.8313,76.8125 Q136.4875,76.8125 135.8,77.875 Q135.1125,78.9375 135.1125,81 Q135.1125,83.0781 135.8,84.1406 Q136.4875,85.1875 137.8313,85.1875 Q138.4563,85.1875 139.05,84.9219 Q139.6438,84.6563 140.2688,84.0781 L140.2688,86.875 Z " fill="#000000"/><text fill="#000000" font-family="sans-serif" font-size="14" lengthAdjust="spacing" textLength="65" x="153.2" y="85.8467">Category</text><line style="stroke:#181818;stroke-width:0.5;" x1="117.5" x2="226.5" y1="97" y2="97"/><rect fill="none" height="6" style="stroke:#C82930;stroke-width:1.0;" width="6" x="124.5" y="107.6484"/><text fill="#000000" font-family="sans-serif" font-size="14" lengthAdjust="spacing" textLength="35" x="136.5" y="113.9951">int id</text><rect fill="none" height="6" style="stroke:#C82930;stroke-width:1.0;" width="6" x="124.5" y="123.9453"/><text fill="#000000" font-family="sans-serif" font-size="14" lengthAdjust="spacing" textLength="85" x="136.5" y="130.292">string name</text><line style="stroke:#181818;stroke-width:0.5;" x1="117.5" x2="226.5" y1="137.5938" y2="137.5938"/></g><!--MD5=[042fa140da40c49659127f611bcff931]
class Comment--><g id="elem_Comment"><rect codeLine="31" fill="#F1F1F1" height="129.4844" id="Comment" rx="2.5" ry="2.5" style="stroke:#181818;stroke-width:0.5;" width="234" x="198" y="468"/><ellipse cx="275.75" cy="484" fill="#ADD1B2" rx="11" ry="11" style="stroke:#181818;stroke-width:1.0;"/><path d="M278.2188,489.875 Q277.6406,490.1875 277,490.3438 Q276.3594,490.5 275.6563,490.5 Q273.1563,490.5 271.8281,488.8281 Q270.5156,487.1563 270.5156,484 Q270.5156,480.8438 271.8281,479.1719 Q273.1563,477.5 275.6563,477.5 Q276.3594,477.5 277,477.6563 Q277.6563,477.8125 278.2188,478.125 L278.2188,480.9219 Q277.5938,480.3594 277,480.0938 Q276.4063,479.8125 275.7813,479.8125 Q274.4375,479.8125 273.75,480.875 Q273.0625,481.9375 273.0625,484 Q273.0625,486.0781 273.75,487.1406 Q274.4375,488.1875 275.7813,488.1875 Q276.4063,488.1875 277,487.9219 Q277.5938,487.6563 278.2188,487.0781 L278.2188,489.875 Z " fill="#000000"/><text fill="#000000" font-family="sans-serif" font-size="14" lengthAdjust="spacing" textLength="70" x="296.25" y="488.8467">Comment</text><line style="stroke:#181818;stroke-width:0.5;" x1="199" x2="431" y1="500" y2="500"/><rect fill="none" height="6" style="stroke:#C82930;stroke-width:1.0;" width="6" x="206" y="510.6484"/><text fill="#000000" font-family="sans-serif" font-size="14" lengthAdjust="spacing" textLength="35" x="218" y="516.9951">int id</text><rect fill="none" height="6" style="stroke:#C82930;stroke-width:1.0;" width="6" x="206" y="526.9453"/><text fill="#000000" font-family="sans-serif" font-size="14" lengthAdjust="spacing" textLength="98" x="218" y="533.292">string content</text><rect fill="none" height="6" style="stroke:#C82930;stroke-width:1.0;" width="6" x="206" y="543.2422"/><text fill="#000000" font-family="sans-serif" font-size="14" lengthAdjust="spacing" textLength="208" x="218" y="549.5889">DateTimeInterface createdAt</text><rect fill="none" height="6" style="stroke:#C82930;stroke-width:1.0;" width="6" x="206" y="559.5391"/><text fill="#000000" font-family="sans-serif" font-size="14" lengthAdjust="spacing" textLength="67" x="218" y="565.8857">User user</text><rect fill="none" height="6" style="stroke:#C82930;stroke-width:1.0;" width="6" x="206" y="575.8359"/><text fill="#000000" font-family="sans-serif" font-size="14" lengthAdjust="spacing" textLength="70" x="218" y="582.1826">Trick trick</text><line style="stroke:#181818;stroke-width:0.5;" x1="199" x2="431" y1="589.4844" y2="589.4844"/></g><!--MD5=[9d93cc8568a88ed605ddd50c0dd874e2]
class Media--><g id="elem_Media"><rect codeLine="42" fill="#F1F1F1" height="80.5938" id="Media" rx="2.5" ry="2.5" style="stroke:#181818;stroke-width:0.5;" width="103" x="22.5" y="492"/><ellipse cx="50.1" cy="508" fill="#A9DCDF" rx="11" ry="11" style="stroke:#181818;stroke-width:1.0;"/><path d="M50.2094,503.2969 L49.0531,508.625 L51.3813,508.625 L50.2094,503.2969 Z M48.725,500.75 L51.7094,500.75 L55.0688,513.75 L52.6156,513.75 L51.85,510.75 L48.5688,510.75 L47.8188,513.75 L45.3813,513.75 L48.725,500.75 Z " fill="#000000"/><text fill="#000000" font-family="sans-serif" font-size="14" font-style="italic" lengthAdjust="spacing" textLength="43" x="66.9" y="512.8467">Media</text><line style="stroke:#181818;stroke-width:0.5;" x1="23.5" x2="124.5" y1="524" y2="524"/><rect fill="none" height="6" style="stroke:#C82930;stroke-width:1.0;" width="6" x="30.5" y="534.6484"/><text fill="#000000" font-family="sans-serif" font-size="14" lengthAdjust="spacing" textLength="35" x="42.5" y="540.9951">int id</text><rect fill="none" height="6" style="stroke:#C82930;stroke-width:1.0;" width="6" x="30.5" y="550.9453"/><text fill="#000000" font-family="sans-serif" font-size="14" lengthAdjust="spacing" textLength="77" x="42.5" y="557.292">?Trick trick</text><line style="stroke:#181818;stroke-width:0.5;" x1="23.5" x2="124.5" y1="564.5938" y2="564.5938"/></g><!--MD5=[964f074a2dd77d134c21b891bb53e381]
class Image--><g id="elem_Image"><rect codeLine="47" fill="#F1F1F1" height="80.5938" id="Image" rx="2.5" ry="2.5" style="stroke:#181818;stroke-width:0.5;" width="133" x="247.5" y="657"/><ellipse cx="287.7" cy="673" fill="#ADD1B2" rx="11" ry="11" style="stroke:#181818;stroke-width:1.0;"/><path d="M290.1688,678.875 Q289.5906,679.1875 288.95,679.3438 Q288.3094,679.5 287.6063,679.5 Q285.1063,679.5 283.7781,677.8281 Q282.4656,676.1563 282.4656,673 Q282.4656,669.8438 283.7781,668.1719 Q285.1063,666.5 287.6063,666.5 Q288.3094,666.5 288.95,666.6563 Q289.6063,666.8125 290.1688,667.125 L290.1688,669.9219 Q289.5438,669.3594 288.95,669.0938 Q288.3563,668.8125 287.7313,668.8125 Q286.3875,668.8125 285.7,669.875 Q285.0125,670.9375 285.0125,673 Q285.0125,675.0781 285.7,676.1406 Q286.3875,677.1875 287.7313,677.1875 Q288.3563,677.1875 288.95,676.9219 Q289.5438,676.6563 290.1688,676.0781 L290.1688,678.875 Z " fill="#000000"/><text fill="#000000" font-family="sans-serif" font-size="14" lengthAdjust="spacing" textLength="45" x="307.3" y="677.8467">Image</text><line style="stroke:#181818;stroke-width:0.5;" x1="248.5" x2="379.5" y1="689" y2="689"/><rect fill="none" height="6" style="stroke:#C82930;stroke-width:1.0;" width="6" x="255.5" y="699.6484"/><text fill="#000000" font-family="sans-serif" font-size="14" lengthAdjust="spacing" textLength="107" x="267.5" y="705.9951">string filename</text><rect fill="none" height="6" style="stroke:#C82930;stroke-width:1.0;" width="6" x="255.5" y="715.9453"/><text fill="#000000" font-family="sans-serif" font-size="14" lengthAdjust="spacing" textLength="62" x="267.5" y="722.292">string alt</text><line style="stroke:#181818;stroke-width:0.5;" x1="248.5" x2="379.5" y1="729.5938" y2="729.5938"/></g><!--MD5=[166247bf81aba95c770c3b8fd8e3cb19]
class Video--><g id="elem_Video"><rect codeLine="52" fill="#F1F1F1" height="80.5938" id="Video" rx="2.5" ry="2.5" style="stroke:#181818;stroke-width:0.5;" width="190" x="22" y="657"/><ellipse cx="92.25" cy="673" fill="#ADD1B2" rx="11" ry="11" style="stroke:#181818;stroke-width:1.0;"/><path d="M94.7188,678.875 Q94.1406,679.1875 93.5,679.3438 Q92.8594,679.5 92.1563,679.5 Q89.6563,679.5 88.3281,677.8281 Q87.0156,676.1563 87.0156,673 Q87.0156,669.8438 88.3281,668.1719 Q89.6563,666.5 92.1563,666.5 Q92.8594,666.5 93.5,666.6563 Q94.1563,666.8125 94.7188,667.125 L94.7188,669.9219 Q94.0938,669.3594 93.5,669.0938 Q92.9063,668.8125 92.2813,668.8125 Q90.9375,668.8125 90.25,669.875 Q89.5625,670.9375 89.5625,673 Q89.5625,675.0781 90.25,676.1406 Q90.9375,677.1875 92.2813,677.1875 Q92.9063,677.1875 93.5,676.9219 Q94.0938,676.6563 94.7188,676.0781 L94.7188,678.875 Z " fill="#000000"/><text fill="#000000" font-family="sans-serif" font-size="14" lengthAdjust="spacing" textLength="41" x="112.75" y="677.8467">Video</text><line style="stroke:#181818;stroke-width:0.5;" x1="23" x2="211" y1="689" y2="689"/><rect fill="none" height="6" style="stroke:#C82930;stroke-width:1.0;" width="6" x="30" y="699.6484"/><text fill="#000000" font-family="sans-serif" font-size="14" lengthAdjust="spacing" textLength="63" x="42" y="705.9951">string url</text><rect fill="none" height="6" style="stroke:#C82930;stroke-width:1.0;" width="6" x="30" y="715.9453"/><text fill="#000000" font-family="sans-serif" font-size="14" lengthAdjust="spacing" textLength="164" x="42" y="722.292">VideoProvider provider</text><line style="stroke:#181818;stroke-width:0.5;" x1="23" x2="211" y1="729.5938" y2="729.5938"/></g><!--MD5=[9fbee1e3a8fbe62298f9272a83d4ceb1]
class VideoProvider--><g id="elem_VideoProvider"><rect codeLine="57" fill="#F1F1F1" height="96.8906" id="VideoProvider" rx="2.5" ry="2.5" style="stroke:#181818;stroke-width:0.5;" width="132" x="51" y="798"/><ellipse cx="66" cy="814" fill="#EB937F" rx="11" ry="11" style="stroke:#181818;stroke-width:1.0;"/><path d="M70.1094,820.5 L62.3906,820.5 L62.3906,807.5 L70.1094,807.5 L70.1094,809.7813 L64.8438,809.7813 L64.8438,812.5 L69.6094,812.5 L69.6094,814.7813 L64.8438,814.7813 L64.8438,818.2344 L70.1094,818.2344 L70.1094,820.5 Z " fill="#000000"/><text fill="#000000" font-family="sans-serif" font-size="14" lengthAdjust="spacing" textLength="100" x="80" y="818.8467">VideoProvider</text><line style="stroke:#181818;stroke-width:0.5;" x1="52" x2="182" y1="830" y2="830"/><text fill="#000000" font-family="sans-serif" font-size="14" lengthAdjust="spacing" textLength="59" x="57" y="846.9951">Youtube</text><text fill="#000000" font-family="sans-serif" font-size="14" lengthAdjust="spacing" textLength="84" x="57" y="863.292">DailyMotion</text><text fill="#000000" font-family="sans-serif" font-size="14" lengthAdjust="spacing" textLength="46" x="57" y="879.5889">Vimeo</text><line style="stroke:#181818;stroke-width:0.5;" x1="52" x2="182" y1="886.8906" y2="886.8906"/></g><!--MD5=[a7661dae5b0d701614a666888c8235ba]
class UserInterface--><g id="elem_UserInterface"><rect codeLine="69" fill="#F1F1F1" height="96.8906" id="UserInterface" rx="2.5" ry="2.5" style="stroke:#181818;stroke-width:0.5;" width="280" x="817" y="270.5"/><ellipse cx="904.75" cy="286.5" fill="#B4A7E5" rx="11" ry="11" style="stroke:#181818;stroke-width:1.0;"/><path d="M901.1719,282.2813 L901.1719,280 L908.5625,280 L908.5625,282.2813 L906.0938,282.2813 L906.0938,290.7344 L908.5625,290.7344 L908.5625,293 L901.1719,293 L901.1719,290.7344 L903.6406,290.7344 L903.6406,282.2813 L901.1719,282.2813 Z " fill="#000000"/><text fill="#000000" font-family="sans-serif" font-size="14" font-style="italic" lengthAdjust="spacing" textLength="96" x="925.25" y="291.3467">UserInterface</text><line style="stroke:#181818;stroke-width:0.5;" x1="818" x2="1096" y1="302.5" y2="302.5"/><line style="stroke:#181818;stroke-width:0.5;" x1="818" x2="1096" y1="310.5" y2="310.5"/><ellipse cx="828" cy="324.1484" fill="#84BE84" rx="3" ry="3" style="stroke:#038048;stroke-width:1.0;"/><text fill="#000000" font-family="sans-serif" font-size="14" lengthAdjust="spacing" textLength="254" x="837" y="327.4951">array&lt;array-key, string&gt; getRoles()</text><ellipse cx="828" cy="340.4453" fill="#84BE84" rx="3" ry="3" style="stroke:#038048;stroke-width:1.0;"/><text fill="#000000" font-family="sans-serif" font-size="14" lengthAdjust="spacing" textLength="165" x="837" y="343.792">void eraseCredentials()</text><ellipse cx="828" cy="356.7422" fill="#84BE84" rx="3" ry="3" style="stroke:#038048;stroke-width:1.0;"/><text fill="#000000" font-family="sans-serif" font-size="14" lengthAdjust="spacing" textLength="173" x="837" y="360.0889">string getUserIdentifier()</text></g><!--MD5=[3e5e288e94eb368478771d5941c0091b]
class PasswordAuthenticatedUserInterface--><g id="elem_PasswordAuthenticatedUserInterface"><rect codeLine="75" fill="#F1F1F1" height="64.2969" id="PasswordAuthenticatedUserInterface" rx="2.5" ry="2.5" style="stroke:#181818;stroke-width:0.5;" width="294" x="488" y="287"/><ellipse cx="503" cy="303" fill="#B4A7E5" rx="11" ry="11" style="stroke:#181818;stroke-width:1.0;"/><path d="M499.4219,298.7813 L499.4219,296.5 L506.8125,296.5 L506.8125,298.7813 L504.3438,298.7813 L504.3438,307.2344 L506.8125,307.2344 L506.8125,309.5 L499.4219,309.5 L499.4219,307.2344 L501.8906,307.2344 L501.8906,298.7813 L499.4219,298.7813 Z " fill="#000000"/><text fill="#000000" font-family="sans-serif" font-size="14" font-style="italic" lengthAdjust="spacing" textLength="262" x="517" y="307.8467">PasswordAuthenticatedUserInterface</text><line style="stroke:#181818;stroke-width:0.5;" x1="489" x2="781" y1="319" y2="319"/><line style="stroke:#181818;stroke-width:0.5;" x1="489" x2="781" y1="327" y2="327"/><ellipse cx="499" cy="340.6484" fill="#84BE84" rx="3" ry="3" style="stroke:#038048;stroke-width:1.0;"/><text fill="#000000" font-family="sans-serif" font-size="14" lengthAdjust="spacing" textLength="150" x="508" y="343.9951">?string getPassword()</text></g><!--MD5=[3c0b2a8407d536453e9be14453a8b931]
link User to Trick--><g id="link_User_Trick"><path codeLine="22" d="M297.75,170.24 C281.81,188.97 264.08,209.81 247.08,229.78 " fill="none" id="User-Trick" style="stroke:#181818;stroke-width:1.0;"/><text fill="#000000" font-family="sans-serif" font-size="13" lengthAdjust="spacing" textLength="8" x="283.0148" y="190.6393">1</text><text fill="#000000" font-family="sans-serif" font-size="13" lengthAdjust="spacing" textLength="23" x="229.3452" y="218.8272">0..*</text></g><!--MD5=[8fae8229a892e6d363a28902a48eb947]
link Category to Trick--><g id="link_Category_Trick"><path codeLine="29" d="M172,146.28 C172,169.85 172,200.71 172,229.75 " fill="none" id="Category-Trick" style="stroke:#181818;stroke-width:1.0;"/><text fill="#000000" font-family="sans-serif" font-size="13" lengthAdjust="spacing" textLength="8" x="163.3875" y="165.781">1</text><text fill="#000000" font-family="sans-serif" font-size="13" lengthAdjust="spacing" textLength="23" x="148.0477" y="218.7948">0..*</text></g><!--MD5=[2dd21c5e4d24a00e804d12dd0c7b0d9f]
link User to Comment--><g id="link_User_Comment"><path codeLine="39" d="M346.46,170.13 C339.48,250.36 327.54,387.51 320.55,467.79 " fill="none" id="User-Comment" style="stroke:#181818;stroke-width:1.0;"/><text fill="#000000" font-family="sans-serif" font-size="13" lengthAdjust="spacing" textLength="8" x="337.3569" y="190.5166">1</text><text fill="#000000" font-family="sans-serif" font-size="13" lengthAdjust="spacing" textLength="23" x="296.8992" y="456.9397">0..*</text></g><!--MD5=[f16608e8a5bf895529a6b5c6f5109a91]
link Trick to Comment--><g id="link_Trick_Comment"><path codeLine="40" d="M231.61,408.16 C245.17,428.23 259.33,449.16 272.04,467.96 " fill="none" id="Trick-Comment" style="stroke:#181818;stroke-width:1.0;"/><text fill="#000000" font-family="sans-serif" font-size="13" lengthAdjust="spacing" textLength="8" x="228.389" y="428.5232">1</text><text fill="#000000" font-family="sans-serif" font-size="13" lengthAdjust="spacing" textLength="23" x="243.0834" y="457.1283">0..*</text></g><!--MD5=[f9ac3c072bc26e224af9a98adf480645]
reverse link Media to Image--><g id="link_Media_Image"><path d="M137.57,585.7 C142.73,589.6 147.92,593.41 153,597 C183.19,618.34 217.93,640.14 247.4,657.87 " fill="none" id="Media-backto-Image" style="stroke:#181818;stroke-width:1.0;"/><polygon fill="none" points="132.83,590.88,121.31,573.09,141.41,579.81,132.83,590.88" style="stroke:#181818;stroke-width:1.0;"/></g><!--MD5=[46facb2c12fed10827aedf45a070bcb0]
reverse link Media to Video--><g id="link_Media_Video"><path d="M89.66,592.88 C95.27,614.13 101.45,637.56 106.52,656.76 " fill="none" id="Media-backto-Video" style="stroke:#181818;stroke-width:1.0;"/><polygon fill="none" points="82.85,594.5,84.52,573.37,96.39,590.93,82.85,594.5" style="stroke:#181818;stroke-width:1.0;"/></g><!--MD5=[65bc919ff287a66542605f23a8caa090]
link Trick to Media--><g id="link_Trick_Media"><path codeLine="63" d="M131.15,408.16 C117.65,437.29 103.3,468.26 92.36,491.87 " fill="none" id="Trick-Media" style="stroke:#181818;stroke-width:1.0;"/><text fill="#000000" font-family="sans-serif" font-size="13" lengthAdjust="spacing" textLength="8" x="119.2957" y="428.5232">1</text><text fill="#000000" font-family="sans-serif" font-size="13" lengthAdjust="spacing" textLength="23" x="70.4962" y="481.01">0..*</text></g><!--MD5=[c83a4be5ac6d7e10a2966b6aca1f006c]
link Trick to Image--><g id="link_Trick_Image"><path codeLine="64" d="M156.04,408.23 C150.11,465.24 150.92,539.29 181,597 C195.53,624.87 221.8,647.05 247.17,663.33 " fill="none" id="Trick-Image" style="stroke:#181818;stroke-width:1.0;"/><text fill="#000000" font-family="sans-serif" font-size="13" lengthAdjust="spacing" textLength="8" x="146.3871" y="428.2973">1</text><text fill="#000000" font-family="sans-serif" font-size="13" lengthAdjust="spacing" textLength="24" x="220.0681" y="654.403">0..1</text></g><!--MD5=[48013f3149bc41b9169d26ea084c97b8]
link Video to VideoProvider--><g id="link_Video_VideoProvider"><path codeLine="65" d="M117,738.28 C117,756.65 117,778.6 117,797.84 " fill="none" id="Video-VideoProvider" style="stroke:#181818;stroke-width:1.0;"/></g><!--MD5=[2b1021e991bdb1a0a284433438cee317]
link User to UserInterface--><g id="link_User_UserInterface"><path codeLine="81" d="M420.6,119.25 C510.09,137.18 670.52,173.77 800,227.5 C822.13,236.69 845,248.42 866.19,260.37 " fill="none" id="User-to-UserInterface" style="stroke:#181818;stroke-width:1.0;"/><polygon fill="none" points="869.74,254.33,883.56,270.4,862.74,266.45,869.74,254.33" style="stroke:#181818;stroke-width:1.0;"/></g><!--MD5=[c0bc830aeb216dd539b16b5f6010f448]
link User to PasswordAuthenticatedUserInterface--><g id="link_User_PasswordAuthenticatedUserInterface"><path codeLine="82" d="M420.51,157.7 C468.48,193.55 531.87,240.92 577.27,274.86 " fill="none" id="User-to-PasswordAuthenticatedUserInterface" style="stroke:#181818;stroke-width:1.0;"/><polygon fill="none" points="581.59,269.35,593.42,286.93,573.21,280.56,581.59,269.35" style="stroke:#181818;stroke-width:1.0;"/></g><!--MD5=[41c53e12307b2730b0f3f8e6afa5f51a]
@startuml

package "Snowtricks" {
    class User {
        - int id
        - string email
        - string password
        - string name
        - ?string avatar
    }

    class Trick {
        - int id
        - string name
        - string description
        - string slug
        - DateTimeInterface createdAt
        - DateTimeInterface updatedAt
        - User user
        - Image cover
    }

    User "1" - - "0..*" Trick

    class Category {
        - int id
        - string name
    }

    Category "1" - - "0..*" Trick

    class Comment {
        - int id
        - string content
        - DateTimeInterface createdAt
        - User user
        - Trick trick
    }

    User "1" - - "0..*" Comment
    Trick "1" - - "0..*" Comment

    abstract class Media {
        - int id
        - ?Trick trick
    }

    class Image extends Media {
        - string filename
        - string alt
    }

    class Video extends Media {
        - string url
        - VideoProvider provider
    }

    enum VideoProvider {
        Youtube
        DailyMotion
        Vimeo
    }

    Trick "1" - - "0..*" Media
    Trick "1" - - "0..1" Image
    Video - - VideoProvider
}

package "Symfony" {
    interface UserInterface {
        + array<array-key, string> getRoles()
        + void eraseCredentials()
        + string getUserIdentifier()
    }

    interface PasswordAuthenticatedUserInterface {
        + ?string getPassword()
    }
}


User - -|> UserInterface
User - -|> PasswordAuthenticatedUserInterface

@enduml

PlantUML version 1.2022.7(Mon Aug 22 19:01:30 CEST 2022)
(GPL source distribution)
Java Runtime: OpenJDK Runtime Environment
JVM: OpenJDK 64-Bit Server VM
Default Encoding: UTF-8
Language: fr
Country: FR
--></g></svg>