<?xml version="1.0" encoding="UTF-8" standalone="no"?><svg xmlns="http://www.w3.org/2000/svg" xmlns:xlink="http://www.w3.org/1999/xlink" contentStyleType="text/css" height="250px" preserveAspectRatio="none" style="width:511px;height:250px;background:#FFFFFF;" version="1.1" viewBox="0 0 511 250" width="511px" zoomAndPan="magnify"><defs/><g><!--MD5=[fc1f04841d2240de7fb30f5ecd1d4faa]
cluster Securité--><g id="cluster_Securité"><rect fill="none" height="237" rx="2.5" ry="2.5" style="stroke:#181818;stroke-width:1.0;" width="198" x="178" y="7"/><text fill="#000000" font-family="sans-serif" font-size="14" font-weight="bold" lengthAdjust="spacing" textLength="67" x="243.5" y="21.9951">Securité</text></g><g id="elem_Se connecter"><ellipse cx="276.9333" cy="58.9867" fill="#F1F1F1" rx="70.4333" ry="16.4867" style="stroke:#181818;stroke-width:0.5;"/><text fill="#000000" font-family="sans-serif" font-size="14" lengthAdjust="spacing" textLength="94" x="226.9333" y="62.7342">Se connecter</text></g><g id="elem_S'inscrire"><ellipse cx="276.8197" cy="125.7671" fill="#F1F1F1" rx="59.3197" ry="14.7671" style="stroke:#181818;stroke-width:0.5;"/><text fill="#000000" font-family="sans-serif" font-size="14" lengthAdjust="spacing" textLength="66" x="240.8197" y="129.5147">S'inscrire</text></g><g id="elem_Réinitialiser le\nmot de passe"><ellipse cx="277.1073" cy="202.1062" fill="#F1F1F1" rx="83.1073" ry="26.1062" style="stroke:#181818;stroke-width:0.5;"/><text fill="#000000" font-family="sans-serif" font-size="14" lengthAdjust="spacing" textLength="101" x="223.6073" y="197.7053">Réinitialiser le</text><text fill="#000000" font-family="sans-serif" font-size="14" lengthAdjust="spacing" textLength="95" x="226.6073" y="214.0022">mot de passe</text></g><!--MD5=[db8075859b8dc6afee89c0188a9ca649]
entity Utilisateur--><g id="elem_Utilisateur"><ellipse cx="42" cy="63.5" fill="#F1F1F1" rx="8" ry="8" style="stroke:#181818;stroke-width:0.5;"/><path d="M42,71.5 L42,98.5 M29,79.5 L55,79.5 M42,98.5 L29,113.5 M42,98.5 L55,113.5 " fill="none" style="stroke:#181818;stroke-width:0.5;"/><text fill="#000000" font-family="sans-serif" font-size="14" lengthAdjust="spacing" textLength="72" x="6" y="127.9951">Utilisateur</text></g><!--MD5=[993e0d4fdeccee87e9dafe04241cdfbd]
entity MySQL--><g id="elem_MySQL"><path d="M426,69.5 C426,59.5 460,59.5 460,59.5 C460,59.5 494,59.5 494,69.5 L494,94.7969 C494,104.7969 460,104.7969 460,104.7969 C460,104.7969 426,104.7969 426,94.7969 L426,69.5 " fill="#F1F1F1" style="stroke:#181818;stroke-width:0.5;"/><path d="M426,69.5 C426,79.5 460,79.5 460,79.5 C460,79.5 494,79.5 494,69.5 " fill="none" style="stroke:#181818;stroke-width:0.5;"/><text fill="#000000" font-family="sans-serif" font-size="14" lengthAdjust="spacing" textLength="48" x="436" y="96.4951">MySQL</text></g><!--MD5=[9fc88ce50969851346a98c7adc6b6faa]
entity Mailer--><g id="elem_Mailer"><path d="M431.4249,152.3491 C435.4698,143.7993 441.8819,144.5036 447.5445,150.5644 C451.6148,144.0374 456.5842,145.3079 460.4841,150.7486 C465.9303,143.3665 472.5779,144.502 476.3023,152.5174 C480.4509,147.3635 486.4086,146.6302 489.5501,153.6164 C498.6475,155.9939 499.4326,161.3776 493.4788,167.896 C498.3099,174.0213 498.752,178.6189 490.7381,182.3002 C487.0219,189.7065 482.1347,191.1598 475.9083,185.0555 C472.8906,192.7557 466.4681,192.7294 461.3671,187.3764 C456.4109,193.3925 449.0654,192.9699 446.7696,184.6647 C442.3376,190.8812 436.9236,190.1557 433.0184,184.0756 C423.0558,181.2595 421.3543,175.6683 428.397,167.972 C421.1856,161.003 422.5389,156.1983 431.4249,152.3491 " fill="#F1F1F1" style="stroke:#181818;stroke-width:0.5;"/><text fill="#000000" font-family="sans-serif" font-size="14" lengthAdjust="spacing" textLength="44" x="438" y="171.9951">Mailer</text></g><!--MD5=[901ff1578aa62d1e99a6d11b3062fbf1]
link Utilisateur to Se connecter--><g id="link_Utilisateur_Se connecter"><path d="M78.13,87.87 C114.75,82.53 172.78,74.06 216.54,67.68 " fill="none" id="Utilisateur-Se connecter" style="stroke:#181818;stroke-width:1.0;"/></g><!--MD5=[e2450e285b8c60ff7531e4a5464f5347]
link Se connecter to MySQL--><g id="link_Se connecter_MySQL"><path d="M339.28,66.79 C368.3,70.47 401.82,74.73 425.99,77.81 " fill="none" id="Se connecter-MySQL" style="stroke:#181818;stroke-width:1.0;"/></g><!--MD5=[5cb6305d9b0905fb79042c6587494eec]
link Utilisateur to S'inscrire--><g id="link_Utilisateur_S'inscrire"><path d="M78.13,97.98 C117.04,103.49 180.11,112.42 224.58,118.72 " fill="none" id="Utilisateur-S'inscrire" style="stroke:#181818;stroke-width:1.0;"/></g><!--MD5=[45d722aab6bbc128b64a73cfc2380293]
link S'inscrire to MySQL--><g id="link_S'inscrire_MySQL"><path d="M320.44,115.68 C352.62,107.86 396.22,97.26 425.86,90.06 " fill="none" id="S'inscrire-MySQL" style="stroke:#181818;stroke-width:1.0;"/></g><!--MD5=[845e36bcf2a2a50992d134552da8ed0c]
link Réinitialiser le\nmot de passe to Se connecter--><g id="link_Réinitialiser le\nmot de passe_Se connecter"><path d="M194.04,203.51 C170.11,199.52 146.35,190.39 131,171.5 C108.77,144.15 130.82,123.19 170,93 C183.29,82.76 199.74,75.56 215.73,70.51 " fill="none" id="Réinitialiser le\nmot de passe-to-Se connecter" style="stroke:#181818;stroke-width:1.0;stroke-dasharray:7.0,7.0;"/><polygon fill="#181818" points="220.67,69.02,210.8985,67.7882,215.8828,70.4633,213.2077,75.4477,220.67,69.02" style="stroke:#181818;stroke-width:1.0;"/><text fill="#000000" font-family="sans-serif" font-size="13" lengthAdjust="spacing" textLength="52" x="109" y="167.5669">extends</text></g><!--MD5=[37d08d77f51329359b29eb3691b8085c]
link Réinitialiser le\nmot de passe to Mailer--><g id="link_Réinitialiser le\nmot de passe_Mailer"><path d="M347.98,188.47 C373.45,183.54 401.2,178.18 422.59,174.04 " fill="none" id="Réinitialiser le\nmot de passe-Mailer" style="stroke:#181818;stroke-width:1.0;"/></g><!--MD5=[daac36cd229493f6f0d0ecfdf8175787]
link S'inscrire to Mailer--><g id="link_S'inscrire_Mailer"><path d="M321.82,135.92 C352.78,142.94 393.8,152.23 422.89,158.82 " fill="none" id="S'inscrire-Mailer" style="stroke:#181818;stroke-width:1.0;"/></g><!--MD5=[cfc7c465146bc64fb3a79026eb402258]
@startuml

left to right direction
skinparam packageStyle rectangle
actor Utilisateur
database MySQL
cloud Mailer
rectangle Securité {
    Utilisateur - - (Se connecter)
    (Se connecter) - - MySQL
    Utilisateur - - (S'inscrire)
    (S'inscrire) - - MySQL
    (Réinitialiser le\nmot de passe) .> (Se connecter) : extends
    (Réinitialiser le\nmot de passe) - - Mailer
    (S'inscrire) - - Mailer
}

@enduml

PlantUML version 1.2022.7(Mon Aug 22 19:01:30 CEST 2022)
(GPL source distribution)
Java Runtime: OpenJDK Runtime Environment
JVM: OpenJDK 64-Bit Server VM
Default Encoding: UTF-8
Language: fr
Country: FR
--></g></svg>